<?xml version="1.0" encoding="UTF-8"?>
<svg version="1.2" viewBox="0 0 14000 14000" stroke-width="28.222" xmlns="http://www.w3.org/2000/svg">
    <!-- outer frame -->
    <g>
        <path fill="none" stroke="rgb(0,0,0)" d="M 7000,13500 L 500,13500 500,500 13500,500 13500,13500 7000,13500"/>
    </g>
    <!-- 2 horizontal and 2 vertical solid lines -->
    <g>
        <path fill="none" stroke="rgb(0,0,0)" d="M 500,4830 L 13500,4830"/>
    </g>
    <g>
        <path fill="none" stroke="rgb(0,0,0)" d="M 4830,13500 L 4830,500"/>
    </g>
    <g>
        <path fill="none" stroke="rgb(0,0,0)" d="M 9160,13500 L 9160,500"/>
    </g>
    <g>
        <path fill="none" stroke="rgb(0,0,0)" d="M 500,9170 L 13500,9170"/>
    </g>
    <!-- 6 horizontal and 6 vertical dotted lines -->
    <g>
        <path fill="none" stroke="rgb(0,0,0)" d="M 1940,13500 L 1940,13303"/>
        <path fill="none" stroke="rgb(0,0,0)" d="M 1940,13176 L 1940,12979"/>
        <path fill="none" stroke="rgb(0,0,0)" d="M 1940,12852 L 1940,12655"/>
        <path fill="none" stroke="rgb(0,0,0)" d="M 1940,12528 L 1940,12331"/>
        <path fill="none" stroke="rgb(0,0,0)" d="M 1940,12204 L 1940,12007"/>
        <path fill="none" stroke="rgb(0,0,0)" d="M 1940,11880 L 1940,11683"/>
        <path fill="none" stroke="rgb(0,0,0)" d="M 1940,11556 L 1940,11359"/>
        <path fill="none" stroke="rgb(0,0,0)" d="M 1940,11232 L 1940,11035"/>
        <path fill="none" stroke="rgb(0,0,0)" d="M 1940,10908 L 1940,10711"/>
        <path fill="none" stroke="rgb(0,0,0)" d="M 1940,10584 L 1940,10387"/>
        <path fill="none" stroke="rgb(0,0,0)" d="M 1940,10260 L 1940,10063"/>
        <path fill="none" stroke="rgb(0,0,0)" d="M 1940,9936 L 1940,9739"/>
        <path fill="none" stroke="rgb(0,0,0)" d="M 1940,9612 L 1940,9415"/>
        <path fill="none" stroke="rgb(0,0,0)" d="M 1940,9288 L 1940,9091"/>
        <path fill="none" stroke="rgb(0,0,0)" d="M 1940,8964 L 1940,8767"/>
        <path fill="none" stroke="rgb(0,0,0)" d="M 1940,8640 L 1940,8443"/>
        <path fill="none" stroke="rgb(0,0,0)" d="M 1940,8316 L 1940,8119"/>
        <path fill="none" stroke="rgb(0,0,0)" d="M 1940,7992 L 1940,7795"/>
        <path fill="none" stroke="rgb(0,0,0)" d="M 1940,7668 L 1940,7471"/>
        <path fill="none" stroke="rgb(0,0,0)" d="M 1940,7344 L 1940,7147"/>
        <path fill="none" stroke="rgb(0,0,0)" d="M 1940,7020 L 1940,6823"/>
        <path fill="none" stroke="rgb(0,0,0)" d="M 1940,6696 L 1940,6499"/>
        <path fill="none" stroke="rgb(0,0,0)" d="M 1940,6372 L 1940,6175"/>
        <path fill="none" stroke="rgb(0,0,0)" d="M 1940,6048 L 1940,5851"/>
        <path fill="none" stroke="rgb(0,0,0)" d="M 1940,5724 L 1940,5527"/>
        <path fill="none" stroke="rgb(0,0,0)" d="M 1940,5400 L 1940,5203"/>
        <path fill="none" stroke="rgb(0,0,0)" d="M 1940,5076 L 1940,4879"/>
        <path fill="none" stroke="rgb(0,0,0)" d="M 1940,4752 L 1940,4555"/>
        <path fill="none" stroke="rgb(0,0,0)" d="M 1940,4428 L 1940,4231"/>
        <path fill="none" stroke="rgb(0,0,0)" d="M 1940,4104 L 1940,3907"/>
        <path fill="none" stroke="rgb(0,0,0)" d="M 1940,3780 L 1940,3583"/>
        <path fill="none" stroke="rgb(0,0,0)" d="M 1940,3456 L 1940,3259"/>
        <path fill="none" stroke="rgb(0,0,0)" d="M 1940,3132 L 1940,2935"/>
        <path fill="none" stroke="rgb(0,0,0)" d="M 1940,2808 L 1940,2611"/>
        <path fill="none" stroke="rgb(0,0,0)" d="M 1940,2484 L 1940,2287"/>
        <path fill="none" stroke="rgb(0,0,0)" d="M 1940,2160 L 1940,1963"/>
        <path fill="none" stroke="rgb(0,0,0)" d="M 1940,1836 L 1940,1639"/>
        <path fill="none" stroke="rgb(0,0,0)" d="M 1940,1512 L 1940,1315"/>
        <path fill="none" stroke="rgb(0,0,0)" d="M 1940,1188 L 1940,991"/>
        <path fill="none" stroke="rgb(0,0,0)" d="M 1940,864 L 1940,667"/>
        <path fill="none" stroke="rgb(0,0,0)" d="M 1940,540 L 1940,500"/>
    </g>
    <g>
        <path fill="none" stroke="rgb(0,0,0)" d="M 3390,13500 L 3390,13303"/>
        <path fill="none" stroke="rgb(0,0,0)" d="M 3390,13176 L 3390,12979"/>
        <path fill="none" stroke="rgb(0,0,0)" d="M 3390,12852 L 3390,12655"/>
        <path fill="none" stroke="rgb(0,0,0)" d="M 3390,12528 L 3390,12331"/>
        <path fill="none" stroke="rgb(0,0,0)" d="M 3390,12204 L 3390,12007"/>
        <path fill="none" stroke="rgb(0,0,0)" d="M 3390,11880 L 3390,11683"/>
        <path fill="none" stroke="rgb(0,0,0)" d="M 3390,11556 L 3390,11359"/>
        <path fill="none" stroke="rgb(0,0,0)" d="M 3390,11232 L 3390,11035"/>
        <path fill="none" stroke="rgb(0,0,0)" d="M 3390,10908 L 3390,10711"/>
        <path fill="none" stroke="rgb(0,0,0)" d="M 3390,10584 L 3390,10387"/>
        <path fill="none" stroke="rgb(0,0,0)" d="M 3390,10260 L 3390,10063"/>
        <path fill="none" stroke="rgb(0,0,0)" d="M 3390,9936 L 3390,9739"/>
        <path fill="none" stroke="rgb(0,0,0)" d="M 3390,9612 L 3390,9415"/>
        <path fill="none" stroke="rgb(0,0,0)" d="M 3390,9288 L 3390,9091"/>
        <path fill="none" stroke="rgb(0,0,0)" d="M 3390,8964 L 3390,8767"/>
        <path fill="none" stroke="rgb(0,0,0)" d="M 3390,8640 L 3390,8443"/>
        <path fill="none" stroke="rgb(0,0,0)" d="M 3390,8316 L 3390,8119"/>
        <path fill="none" stroke="rgb(0,0,0)" d="M 3390,7992 L 3390,7795"/>
        <path fill="none" stroke="rgb(0,0,0)" d="M 3390,7668 L 3390,7471"/>
        <path fill="none" stroke="rgb(0,0,0)" d="M 3390,7344 L 3390,7147"/>
        <path fill="none" stroke="rgb(0,0,0)" d="M 3390,7020 L 3390,6823"/>
        <path fill="none" stroke="rgb(0,0,0)" d="M 3390,6696 L 3390,6499"/>
        <path fill="none" stroke="rgb(0,0,0)" d="M 3390,6372 L 3390,6175"/>
        <path fill="none" stroke="rgb(0,0,0)" d="M 3390,6048 L 3390,5851"/>
        <path fill="none" stroke="rgb(0,0,0)" d="M 3390,5724 L 3390,5527"/>
        <path fill="none" stroke="rgb(0,0,0)" d="M 3390,5400 L 3390,5203"/>
        <path fill="none" stroke="rgb(0,0,0)" d="M 3390,5076 L 3390,4879"/>
        <path fill="none" stroke="rgb(0,0,0)" d="M 3390,4752 L 3390,4555"/>
        <path fill="none" stroke="rgb(0,0,0)" d="M 3390,4428 L 3390,4231"/>
        <path fill="none" stroke="rgb(0,0,0)" d="M 3390,4104 L 3390,3907"/>
        <path fill="none" stroke="rgb(0,0,0)" d="M 3390,3780 L 3390,3583"/>
        <path fill="none" stroke="rgb(0,0,0)" d="M 3390,3456 L 3390,3259"/>
        <path fill="none" stroke="rgb(0,0,0)" d="M 3390,3132 L 3390,2935"/>
        <path fill="none" stroke="rgb(0,0,0)" d="M 3390,2808 L 3390,2611"/>
        <path fill="none" stroke="rgb(0,0,0)" d="M 3390,2484 L 3390,2287"/>
        <path fill="none" stroke="rgb(0,0,0)" d="M 3390,2160 L 3390,1963"/>
        <path fill="none" stroke="rgb(0,0,0)" d="M 3390,1836 L 3390,1639"/>
        <path fill="none" stroke="rgb(0,0,0)" d="M 3390,1512 L 3390,1315"/>
        <path fill="none" stroke="rgb(0,0,0)" d="M 3390,1188 L 3390,991"/>
        <path fill="none" stroke="rgb(0,0,0)" d="M 3390,864 L 3390,667"/>
        <path fill="none" stroke="rgb(0,0,0)" d="M 3390,540 L 3390,500"/>
    </g>
    <g>
        <path fill="none" stroke="rgb(0,0,0)" d="M 6270,13500 L 6270,13303"/>
        <path fill="none" stroke="rgb(0,0,0)" d="M 6270,13176 L 6270,12979"/>
        <path fill="none" stroke="rgb(0,0,0)" d="M 6270,12852 L 6270,12655"/>
        <path fill="none" stroke="rgb(0,0,0)" d="M 6270,12528 L 6270,12331"/>
        <path fill="none" stroke="rgb(0,0,0)" d="M 6270,12204 L 6270,12007"/>
        <path fill="none" stroke="rgb(0,0,0)" d="M 6270,11880 L 6270,11683"/>
        <path fill="none" stroke="rgb(0,0,0)" d="M 6270,11556 L 6270,11359"/>
        <path fill="none" stroke="rgb(0,0,0)" d="M 6270,11232 L 6270,11035"/>
        <path fill="none" stroke="rgb(0,0,0)" d="M 6270,10908 L 6270,10711"/>
        <path fill="none" stroke="rgb(0,0,0)" d="M 6270,10584 L 6270,10387"/>
        <path fill="none" stroke="rgb(0,0,0)" d="M 6270,10260 L 6270,10063"/>
        <path fill="none" stroke="rgb(0,0,0)" d="M 6270,9936 L 6270,9739"/>
        <path fill="none" stroke="rgb(0,0,0)" d="M 6270,9612 L 6270,9415"/>
        <path fill="none" stroke="rgb(0,0,0)" d="M 6270,9288 L 6270,9091"/>
        <path fill="none" stroke="rgb(0,0,0)" d="M 6270,8964 L 6270,8767"/>
        <path fill="none" stroke="rgb(0,0,0)" d="M 6270,8640 L 6270,8443"/>
        <path fill="none" stroke="rgb(0,0,0)" d="M 6270,8316 L 6270,8119"/>
        <path fill="none" stroke="rgb(0,0,0)" d="M 6270,7992 L 6270,7795"/>
        <path fill="none" stroke="rgb(0,0,0)" d="M 6270,7668 L 6270,7471"/>
        <path fill="none" stroke="rgb(0,0,0)" d="M 6270,7344 L 6270,7147"/>
        <path fill="none" stroke="rgb(0,0,0)" d="M 6270,7020 L 6270,6823"/>
        <path fill="none" stroke="rgb(0,0,0)" d="M 6270,6696 L 6270,6499"/>
        <path fill="none" stroke="rgb(0,0,0)" d="M 6270,6372 L 6270,6175"/>
        <path fill="none" stroke="rgb(0,0,0)" d="M 6270,6048 L 6270,5851"/>
        <path fill="none" stroke="rgb(0,0,0)" d="M 6270,5724 L 6270,5527"/>
        <path fill="none" stroke="rgb(0,0,0)" d="M 6270,5400 L 6270,5203"/>
        <path fill="none" stroke="rgb(0,0,0)" d="M 6270,5076 L 6270,4879"/>
        <path fill="none" stroke="rgb(0,0,0)" d="M 6270,4752 L 6270,4555"/>
        <path fill="none" stroke="rgb(0,0,0)" d="M 6270,4428 L 6270,4231"/>
        <path fill="none" stroke="rgb(0,0,0)" d="M 6270,4104 L 6270,3907"/>
        <path fill="none" stroke="rgb(0,0,0)" d="M 6270,3780 L 6270,3583"/>
        <path fill="none" stroke="rgb(0,0,0)" d="M 6270,3456 L 6270,3259"/>
        <path fill="none" stroke="rgb(0,0,0)" d="M 6270,3132 L 6270,2935"/>
        <path fill="none" stroke="rgb(0,0,0)" d="M 6270,2808 L 6270,2611"/>
        <path fill="none" stroke="rgb(0,0,0)" d="M 6270,2484 L 6270,2287"/>
        <path fill="none" stroke="rgb(0,0,0)" d="M 6270,2160 L 6270,1963"/>
        <path fill="none" stroke="rgb(0,0,0)" d="M 6270,1836 L 6270,1639"/>
        <path fill="none" stroke="rgb(0,0,0)" d="M 6270,1512 L 6270,1315"/>
        <path fill="none" stroke="rgb(0,0,0)" d="M 6270,1188 L 6270,991"/>
        <path fill="none" stroke="rgb(0,0,0)" d="M 6270,864 L 6270,667"/>
        <path fill="none" stroke="rgb(0,0,0)" d="M 6270,540 L 6270,500"/>
    </g>
    <g>
        <path fill="none" stroke="rgb(0,0,0)" d="M 7720,13500 L 7720,13303"/>
        <path fill="none" stroke="rgb(0,0,0)" d="M 7720,13176 L 7720,12979"/>
        <path fill="none" stroke="rgb(0,0,0)" d="M 7720,12852 L 7720,12655"/>
        <path fill="none" stroke="rgb(0,0,0)" d="M 7720,12528 L 7720,12331"/>
        <path fill="none" stroke="rgb(0,0,0)" d="M 7720,12204 L 7720,12007"/>
        <path fill="none" stroke="rgb(0,0,0)" d="M 7720,11880 L 7720,11683"/>
        <path fill="none" stroke="rgb(0,0,0)" d="M 7720,11556 L 7720,11359"/>
        <path fill="none" stroke="rgb(0,0,0)" d="M 7720,11232 L 7720,11035"/>
        <path fill="none" stroke="rgb(0,0,0)" d="M 7720,10908 L 7720,10711"/>
        <path fill="none" stroke="rgb(0,0,0)" d="M 7720,10584 L 7720,10387"/>
        <path fill="none" stroke="rgb(0,0,0)" d="M 7720,10260 L 7720,10063"/>
        <path fill="none" stroke="rgb(0,0,0)" d="M 7720,9936 L 7720,9739"/>
        <path fill="none" stroke="rgb(0,0,0)" d="M 7720,9612 L 7720,9415"/>
        <path fill="none" stroke="rgb(0,0,0)" d="M 7720,9288 L 7720,9091"/>
        <path fill="none" stroke="rgb(0,0,0)" d="M 7720,8964 L 7720,8767"/>
        <path fill="none" stroke="rgb(0,0,0)" d="M 7720,8640 L 7720,8443"/>
        <path fill="none" stroke="rgb(0,0,0)" d="M 7720,8316 L 7720,8119"/>
        <path fill="none" stroke="rgb(0,0,0)" d="M 7720,7992 L 7720,7795"/>
        <path fill="none" stroke="rgb(0,0,0)" d="M 7720,7668 L 7720,7471"/>
        <path fill="none" stroke="rgb(0,0,0)" d="M 7720,7344 L 7720,7147"/>
        <path fill="none" stroke="rgb(0,0,0)" d="M 7720,7020 L 7720,6823"/>
        <path fill="none" stroke="rgb(0,0,0)" d="M 7720,6696 L 7720,6499"/>
        <path fill="none" stroke="rgb(0,0,0)" d="M 7720,6372 L 7720,6175"/>
        <path fill="none" stroke="rgb(0,0,0)" d="M 7720,6048 L 7720,5851"/>
        <path fill="none" stroke="rgb(0,0,0)" d="M 7720,5724 L 7720,5527"/>
        <path fill="none" stroke="rgb(0,0,0)" d="M 7720,5400 L 7720,5203"/>
        <path fill="none" stroke="rgb(0,0,0)" d="M 7720,5076 L 7720,4879"/>
        <path fill="none" stroke="rgb(0,0,0)" d="M 7720,4752 L 7720,4555"/>
        <path fill="none" stroke="rgb(0,0,0)" d="M 7720,4428 L 7720,4231"/>
        <path fill="none" stroke="rgb(0,0,0)" d="M 7720,4104 L 7720,3907"/>
        <path fill="none" stroke="rgb(0,0,0)" d="M 7720,3780 L 7720,3583"/>
        <path fill="none" stroke="rgb(0,0,0)" d="M 7720,3456 L 7720,3259"/>
        <path fill="none" stroke="rgb(0,0,0)" d="M 7720,3132 L 7720,2935"/>
        <path fill="none" stroke="rgb(0,0,0)" d="M 7720,2808 L 7720,2611"/>
        <path fill="none" stroke="rgb(0,0,0)" d="M 7720,2484 L 7720,2287"/>
        <path fill="none" stroke="rgb(0,0,0)" d="M 7720,2160 L 7720,1963"/>
        <path fill="none" stroke="rgb(0,0,0)" d="M 7720,1836 L 7720,1639"/>
        <path fill="none" stroke="rgb(0,0,0)" d="M 7720,1512 L 7720,1315"/>
        <path fill="none" stroke="rgb(0,0,0)" d="M 7720,1188 L 7720,991"/>
        <path fill="none" stroke="rgb(0,0,0)" d="M 7720,864 L 7720,667"/>
        <path fill="none" stroke="rgb(0,0,0)" d="M 7720,540 L 7720,500"/>
    </g>
    <g>
        <path fill="none" stroke="rgb(0,0,0)" d="M 10610,13500 L 10610,13303"/>
        <path fill="none" stroke="rgb(0,0,0)" d="M 10610,13176 L 10610,12979"/>
        <path fill="none" stroke="rgb(0,0,0)" d="M 10610,12852 L 10610,12655"/>
        <path fill="none" stroke="rgb(0,0,0)" d="M 10610,12528 L 10610,12331"/>
        <path fill="none" stroke="rgb(0,0,0)" d="M 10610,12204 L 10610,12007"/>
        <path fill="none" stroke="rgb(0,0,0)" d="M 10610,11880 L 10610,11683"/>
        <path fill="none" stroke="rgb(0,0,0)" d="M 10610,11556 L 10610,11359"/>
        <path fill="none" stroke="rgb(0,0,0)" d="M 10610,11232 L 10610,11035"/>
        <path fill="none" stroke="rgb(0,0,0)" d="M 10610,10908 L 10610,10711"/>
        <path fill="none" stroke="rgb(0,0,0)" d="M 10610,10584 L 10610,10387"/>
        <path fill="none" stroke="rgb(0,0,0)" d="M 10610,10260 L 10610,10063"/>
        <path fill="none" stroke="rgb(0,0,0)" d="M 10610,9936 L 10610,9739"/>
        <path fill="none" stroke="rgb(0,0,0)" d="M 10610,9612 L 10610,9415"/>
        <path fill="none" stroke="rgb(0,0,0)" d="M 10610,9288 L 10610,9091"/>
        <path fill="none" stroke="rgb(0,0,0)" d="M 10610,8964 L 10610,8767"/>
        <path fill="none" stroke="rgb(0,0,0)" d="M 10610,8640 L 10610,8443"/>
        <path fill="none" stroke="rgb(0,0,0)" d="M 10610,8316 L 10610,8119"/>
        <path fill="none" stroke="rgb(0,0,0)" d="M 10610,7992 L 10610,7795"/>
        <path fill="none" stroke="rgb(0,0,0)" d="M 10610,7668 L 10610,7471"/>
        <path fill="none" stroke="rgb(0,0,0)" d="M 10610,7344 L 10610,7147"/>
        <path fill="none" stroke="rgb(0,0,0)" d="M 10610,7020 L 10610,6823"/>
        <path fill="none" stroke="rgb(0,0,0)" d="M 10610,6696 L 10610,6499"/>
        <path fill="none" stroke="rgb(0,0,0)" d="M 10610,6372 L 10610,6175"/>
        <path fill="none" stroke="rgb(0,0,0)" d="M 10610,6048 L 10610,5851"/>
        <path fill="none" stroke="rgb(0,0,0)" d="M 10610,5724 L 10610,5527"/>
        <path fill="none" stroke="rgb(0,0,0)" d="M 10610,5400 L 10610,5203"/>
        <path fill="none" stroke="rgb(0,0,0)" d="M 10610,5076 L 10610,4879"/>
        <path fill="none" stroke="rgb(0,0,0)" d="M 10610,4752 L 10610,4555"/>
        <path fill="none" stroke="rgb(0,0,0)" d="M 10610,4428 L 10610,4231"/>
        <path fill="none" stroke="rgb(0,0,0)" d="M 10610,4104 L 10610,3907"/>
        <path fill="none" stroke="rgb(0,0,0)" d="M 10610,3780 L 10610,3583"/>
        <path fill="none" stroke="rgb(0,0,0)" d="M 10610,3456 L 10610,3259"/>
        <path fill="none" stroke="rgb(0,0,0)" d="M 10610,3132 L 10610,2935"/>
        <path fill="none" stroke="rgb(0,0,0)" d="M 10610,2808 L 10610,2611"/>
        <path fill="none" stroke="rgb(0,0,0)" d="M 10610,2484 L 10610,2287"/>
        <path fill="none" stroke="rgb(0,0,0)" d="M 10610,2160 L 10610,1963"/>
        <path fill="none" stroke="rgb(0,0,0)" d="M 10610,1836 L 10610,1639"/>
        <path fill="none" stroke="rgb(0,0,0)" d="M 10610,1512 L 10610,1315"/>
        <path fill="none" stroke="rgb(0,0,0)" d="M 10610,1188 L 10610,991"/>
        <path fill="none" stroke="rgb(0,0,0)" d="M 10610,864 L 10610,667"/>
        <path fill="none" stroke="rgb(0,0,0)" d="M 10610,540 L 10610,500"/>
    </g>
    <g>
        <path fill="none" stroke="rgb(0,0,0)" d="M 500,1940 L 697,1940"/>
        <path fill="none" stroke="rgb(0,0,0)" d="M 824,1940 L 1021,1940"/>
        <path fill="none" stroke="rgb(0,0,0)" d="M 1148,1940 L 1345,1940"/>
        <path fill="none" stroke="rgb(0,0,0)" d="M 1472,1940 L 1669,1940"/>
        <path fill="none" stroke="rgb(0,0,0)" d="M 1796,1940 L 1993,1940"/>
        <path fill="none" stroke="rgb(0,0,0)" d="M 2120,1940 L 2317,1940"/>
        <path fill="none" stroke="rgb(0,0,0)" d="M 2444,1940 L 2641,1940"/>
        <path fill="none" stroke="rgb(0,0,0)" d="M 2768,1940 L 2965,1940"/>
        <path fill="none" stroke="rgb(0,0,0)" d="M 3092,1940 L 3289,1940"/>
        <path fill="none" stroke="rgb(0,0,0)" d="M 3416,1940 L 3613,1940"/>
        <path fill="none" stroke="rgb(0,0,0)" d="M 3740,1940 L 3937,1940"/>
        <path fill="none" stroke="rgb(0,0,0)" d="M 4064,1940 L 4261,1940"/>
        <path fill="none" stroke="rgb(0,0,0)" d="M 4388,1940 L 4585,1940"/>
        <path fill="none" stroke="rgb(0,0,0)" d="M 4712,1940 L 4909,1940"/>
        <path fill="none" stroke="rgb(0,0,0)" d="M 5036,1940 L 5233,1940"/>
        <path fill="none" stroke="rgb(0,0,0)" d="M 5360,1940 L 5557,1940"/>
        <path fill="none" stroke="rgb(0,0,0)" d="M 5684,1940 L 5881,1940"/>
        <path fill="none" stroke="rgb(0,0,0)" d="M 6008,1940 L 6205,1940"/>
        <path fill="none" stroke="rgb(0,0,0)" d="M 6332,1940 L 6529,1940"/>
        <path fill="none" stroke="rgb(0,0,0)" d="M 6656,1940 L 6853,1940"/>
        <path fill="none" stroke="rgb(0,0,0)" d="M 6980,1940 L 7177,1940"/>
        <path fill="none" stroke="rgb(0,0,0)" d="M 7304,1940 L 7501,1940"/>
        <path fill="none" stroke="rgb(0,0,0)" d="M 7628,1940 L 7825,1940"/>
        <path fill="none" stroke="rgb(0,0,0)" d="M 7952,1940 L 8149,1940"/>
        <path fill="none" stroke="rgb(0,0,0)" d="M 8276,1940 L 8473,1940"/>
        <path fill="none" stroke="rgb(0,0,0)" d="M 8600,1940 L 8797,1940"/>
        <path fill="none" stroke="rgb(0,0,0)" d="M 8924,1940 L 9121,1940"/>
        <path fill="none" stroke="rgb(0,0,0)" d="M 9248,1940 L 9445,1940"/>
        <path fill="none" stroke="rgb(0,0,0)" d="M 9572,1940 L 9769,1940"/>
        <path fill="none" stroke="rgb(0,0,0)" d="M 9896,1940 L 10093,1940"/>
        <path fill="none" stroke="rgb(0,0,0)" d="M 10220,1940 L 10417,1940"/>
        <path fill="none" stroke="rgb(0,0,0)" d="M 10544,1940 L 10741,1940"/>
        <path fill="none" stroke="rgb(0,0,0)" d="M 10868,1940 L 11065,1940"/>
        <path fill="none" stroke="rgb(0,0,0)" d="M 11192,1940 L 11389,1940"/>
        <path fill="none" stroke="rgb(0,0,0)" d="M 11516,1940 L 11713,1940"/>
        <path fill="none" stroke="rgb(0,0,0)" d="M 11840,1940 L 12037,1940"/>
        <path fill="none" stroke="rgb(0,0,0)" d="M 12164,1940 L 12361,1940"/>
        <path fill="none" stroke="rgb(0,0,0)" d="M 12488,1940 L 12685,1940"/>
        <path fill="none" stroke="rgb(0,0,0)" d="M 12812,1940 L 13009,1940"/>
        <path fill="none" stroke="rgb(0,0,0)" d="M 13136,1940 L 13333,1940"/>
        <path fill="none" stroke="rgb(0,0,0)" d="M 13460,1940 L 13500,1940"/>
    </g>
    <g>
        <path fill="none" stroke="rgb(0,0,0)" d="M 12060,13500 L 12060,13303"/>
        <path fill="none" stroke="rgb(0,0,0)" d="M 12060,13176 L 12060,12979"/>
        <path fill="none" stroke="rgb(0,0,0)" d="M 12060,12852 L 12060,12655"/>
        <path fill="none" stroke="rgb(0,0,0)" d="M 12060,12528 L 12060,12331"/>
        <path fill="none" stroke="rgb(0,0,0)" d="M 12060,12204 L 12060,12007"/>
        <path fill="none" stroke="rgb(0,0,0)" d="M 12060,11880 L 12060,11683"/>
        <path fill="none" stroke="rgb(0,0,0)" d="M 12060,11556 L 12060,11359"/>
        <path fill="none" stroke="rgb(0,0,0)" d="M 12060,11232 L 12060,11035"/>
        <path fill="none" stroke="rgb(0,0,0)" d="M 12060,10908 L 12060,10711"/>
        <path fill="none" stroke="rgb(0,0,0)" d="M 12060,10584 L 12060,10387"/>
        <path fill="none" stroke="rgb(0,0,0)" d="M 12060,10260 L 12060,10063"/>
        <path fill="none" stroke="rgb(0,0,0)" d="M 12060,9936 L 12060,9739"/>
        <path fill="none" stroke="rgb(0,0,0)" d="M 12060,9612 L 12060,9415"/>
        <path fill="none" stroke="rgb(0,0,0)" d="M 12060,9288 L 12060,9091"/>
        <path fill="none" stroke="rgb(0,0,0)" d="M 12060,8964 L 12060,8767"/>
        <path fill="none" stroke="rgb(0,0,0)" d="M 12060,8640 L 12060,8443"/>
        <path fill="none" stroke="rgb(0,0,0)" d="M 12060,8316 L 12060,8119"/>
        <path fill="none" stroke="rgb(0,0,0)" d="M 12060,7992 L 12060,7795"/>
        <path fill="none" stroke="rgb(0,0,0)" d="M 12060,7668 L 12060,7471"/>
        <path fill="none" stroke="rgb(0,0,0)" d="M 12060,7344 L 12060,7147"/>
        <path fill="none" stroke="rgb(0,0,0)" d="M 12060,7020 L 12060,6823"/>
        <path fill="none" stroke="rgb(0,0,0)" d="M 12060,6696 L 12060,6499"/>
        <path fill="none" stroke="rgb(0,0,0)" d="M 12060,6372 L 12060,6175"/>
        <path fill="none" stroke="rgb(0,0,0)" d="M 12060,6048 L 12060,5851"/>
        <path fill="none" stroke="rgb(0,0,0)" d="M 12060,5724 L 12060,5527"/>
        <path fill="none" stroke="rgb(0,0,0)" d="M 12060,5400 L 12060,5203"/>
        <path fill="none" stroke="rgb(0,0,0)" d="M 12060,5076 L 12060,4879"/>
        <path fill="none" stroke="rgb(0,0,0)" d="M 12060,4752 L 12060,4555"/>
        <path fill="none" stroke="rgb(0,0,0)" d="M 12060,4428 L 12060,4231"/>
        <path fill="none" stroke="rgb(0,0,0)" d="M 12060,4104 L 12060,3907"/>
        <path fill="none" stroke="rgb(0,0,0)" d="M 12060,3780 L 12060,3583"/>
        <path fill="none" stroke="rgb(0,0,0)" d="M 12060,3456 L 12060,3259"/>
        <path fill="none" stroke="rgb(0,0,0)" d="M 12060,3132 L 12060,2935"/>
        <path fill="none" stroke="rgb(0,0,0)" d="M 12060,2808 L 12060,2611"/>
        <path fill="none" stroke="rgb(0,0,0)" d="M 12060,2484 L 12060,2287"/>
        <path fill="none" stroke="rgb(0,0,0)" d="M 12060,2160 L 12060,1963"/>
        <path fill="none" stroke="rgb(0,0,0)" d="M 12060,1836 L 12060,1639"/>
        <path fill="none" stroke="rgb(0,0,0)" d="M 12060,1512 L 12060,1315"/>
        <path fill="none" stroke="rgb(0,0,0)" d="M 12060,1188 L 12060,991"/>
        <path fill="none" stroke="rgb(0,0,0)" d="M 12060,864 L 12060,667"/>
        <path fill="none" stroke="rgb(0,0,0)" d="M 12060,540 L 12060,500"/>
    </g>
    <g>
        <path fill="none" stroke="rgb(0,0,0)" d="M 500,3390 L 697,3390"/>
        <path fill="none" stroke="rgb(0,0,0)" d="M 824,3390 L 1021,3390"/>
        <path fill="none" stroke="rgb(0,0,0)" d="M 1148,3390 L 1345,3390"/>
        <path fill="none" stroke="rgb(0,0,0)" d="M 1472,3390 L 1669,3390"/>
        <path fill="none" stroke="rgb(0,0,0)" d="M 1796,3390 L 1993,3390"/>
        <path fill="none" stroke="rgb(0,0,0)" d="M 2120,3390 L 2317,3390"/>
        <path fill="none" stroke="rgb(0,0,0)" d="M 2444,3390 L 2641,3390"/>
        <path fill="none" stroke="rgb(0,0,0)" d="M 2768,3390 L 2965,3390"/>
        <path fill="none" stroke="rgb(0,0,0)" d="M 3092,3390 L 3289,3390"/>
        <path fill="none" stroke="rgb(0,0,0)" d="M 3416,3390 L 3613,3390"/>
        <path fill="none" stroke="rgb(0,0,0)" d="M 3740,3390 L 3937,3390"/>
        <path fill="none" stroke="rgb(0,0,0)" d="M 4064,3390 L 4261,3390"/>
        <path fill="none" stroke="rgb(0,0,0)" d="M 4388,3390 L 4585,3390"/>
        <path fill="none" stroke="rgb(0,0,0)" d="M 4712,3390 L 4909,3390"/>
        <path fill="none" stroke="rgb(0,0,0)" d="M 5036,3390 L 5233,3390"/>
        <path fill="none" stroke="rgb(0,0,0)" d="M 5360,3390 L 5557,3390"/>
        <path fill="none" stroke="rgb(0,0,0)" d="M 5684,3390 L 5881,3390"/>
        <path fill="none" stroke="rgb(0,0,0)" d="M 6008,3390 L 6205,3390"/>
        <path fill="none" stroke="rgb(0,0,0)" d="M 6332,3390 L 6529,3390"/>
        <path fill="none" stroke="rgb(0,0,0)" d="M 6656,3390 L 6853,3390"/>
        <path fill="none" stroke="rgb(0,0,0)" d="M 6980,3390 L 7177,3390"/>
        <path fill="none" stroke="rgb(0,0,0)" d="M 7304,3390 L 7501,3390"/>
        <path fill="none" stroke="rgb(0,0,0)" d="M 7628,3390 L 7825,3390"/>
        <path fill="none" stroke="rgb(0,0,0)" d="M 7952,3390 L 8149,3390"/>
        <path fill="none" stroke="rgb(0,0,0)" d="M 8276,3390 L 8473,3390"/>
        <path fill="none" stroke="rgb(0,0,0)" d="M 8600,3390 L 8797,3390"/>
        <path fill="none" stroke="rgb(0,0,0)" d="M 8924,3390 L 9121,3390"/>
        <path fill="none" stroke="rgb(0,0,0)" d="M 9248,3390 L 9445,3390"/>
        <path fill="none" stroke="rgb(0,0,0)" d="M 9572,3390 L 9769,3390"/>
        <path fill="none" stroke="rgb(0,0,0)" d="M 9896,3390 L 10093,3390"/>
        <path fill="none" stroke="rgb(0,0,0)" d="M 10220,3390 L 10417,3390"/>
        <path fill="none" stroke="rgb(0,0,0)" d="M 10544,3390 L 10741,3390"/>
        <path fill="none" stroke="rgb(0,0,0)" d="M 10868,3390 L 11065,3390"/>
        <path fill="none" stroke="rgb(0,0,0)" d="M 11192,3390 L 11389,3390"/>
        <path fill="none" stroke="rgb(0,0,0)" d="M 11516,3390 L 11713,3390"/>
        <path fill="none" stroke="rgb(0,0,0)" d="M 11840,3390 L 12037,3390"/>
        <path fill="none" stroke="rgb(0,0,0)" d="M 12164,3390 L 12361,3390"/>
        <path fill="none" stroke="rgb(0,0,0)" d="M 12488,3390 L 12685,3390"/>
        <path fill="none" stroke="rgb(0,0,0)" d="M 12812,3390 L 13009,3390"/>
        <path fill="none" stroke="rgb(0,0,0)" d="M 13136,3390 L 13333,3390"/>
        <path fill="none" stroke="rgb(0,0,0)" d="M 13460,3390 L 13500,3390"/>
    </g>
    <g>
        <path fill="none" stroke="rgb(0,0,0)" d="M 500,6270 L 697,6270"/>
        <path fill="none" stroke="rgb(0,0,0)" d="M 824,6270 L 1021,6270"/>
        <path fill="none" stroke="rgb(0,0,0)" d="M 1148,6270 L 1345,6270"/>
        <path fill="none" stroke="rgb(0,0,0)" d="M 1472,6270 L 1669,6270"/>
        <path fill="none" stroke="rgb(0,0,0)" d="M 1796,6270 L 1993,6270"/>
        <path fill="none" stroke="rgb(0,0,0)" d="M 2120,6270 L 2317,6270"/>
        <path fill="none" stroke="rgb(0,0,0)" d="M 2444,6270 L 2641,6270"/>
        <path fill="none" stroke="rgb(0,0,0)" d="M 2768,6270 L 2965,6270"/>
        <path fill="none" stroke="rgb(0,0,0)" d="M 3092,6270 L 3289,6270"/>
        <path fill="none" stroke="rgb(0,0,0)" d="M 3416,6270 L 3613,6270"/>
        <path fill="none" stroke="rgb(0,0,0)" d="M 3740,6270 L 3937,6270"/>
        <path fill="none" stroke="rgb(0,0,0)" d="M 4064,6270 L 4261,6270"/>
        <path fill="none" stroke="rgb(0,0,0)" d="M 4388,6270 L 4585,6270"/>
        <path fill="none" stroke="rgb(0,0,0)" d="M 4712,6270 L 4909,6270"/>
        <path fill="none" stroke="rgb(0,0,0)" d="M 5036,6270 L 5233,6270"/>
        <path fill="none" stroke="rgb(0,0,0)" d="M 5360,6270 L 5557,6270"/>
        <path fill="none" stroke="rgb(0,0,0)" d="M 5684,6270 L 5881,6270"/>
        <path fill="none" stroke="rgb(0,0,0)" d="M 6008,6270 L 6205,6270"/>
        <path fill="none" stroke="rgb(0,0,0)" d="M 6332,6270 L 6529,6270"/>
        <path fill="none" stroke="rgb(0,0,0)" d="M 6656,6270 L 6853,6270"/>
        <path fill="none" stroke="rgb(0,0,0)" d="M 6980,6270 L 7177,6270"/>
        <path fill="none" stroke="rgb(0,0,0)" d="M 7304,6270 L 7501,6270"/>
        <path fill="none" stroke="rgb(0,0,0)" d="M 7628,6270 L 7825,6270"/>
        <path fill="none" stroke="rgb(0,0,0)" d="M 7952,6270 L 8149,6270"/>
        <path fill="none" stroke="rgb(0,0,0)" d="M 8276,6270 L 8473,6270"/>
        <path fill="none" stroke="rgb(0,0,0)" d="M 8600,6270 L 8797,6270"/>
        <path fill="none" stroke="rgb(0,0,0)" d="M 8924,6270 L 9121,6270"/>
        <path fill="none" stroke="rgb(0,0,0)" d="M 9248,6270 L 9445,6270"/>
        <path fill="none" stroke="rgb(0,0,0)" d="M 9572,6270 L 9769,6270"/>
        <path fill="none" stroke="rgb(0,0,0)" d="M 9896,6270 L 10093,6270"/>
        <path fill="none" stroke="rgb(0,0,0)" d="M 10220,6270 L 10417,6270"/>
        <path fill="none" stroke="rgb(0,0,0)" d="M 10544,6270 L 10741,6270"/>
        <path fill="none" stroke="rgb(0,0,0)" d="M 10868,6270 L 11065,6270"/>
        <path fill="none" stroke="rgb(0,0,0)" d="M 11192,6270 L 11389,6270"/>
        <path fill="none" stroke="rgb(0,0,0)" d="M 11516,6270 L 11713,6270"/>
        <path fill="none" stroke="rgb(0,0,0)" d="M 11840,6270 L 12037,6270"/>
        <path fill="none" stroke="rgb(0,0,0)" d="M 12164,6270 L 12361,6270"/>
        <path fill="none" stroke="rgb(0,0,0)" d="M 12488,6270 L 12685,6270"/>
        <path fill="none" stroke="rgb(0,0,0)" d="M 12812,6270 L 13009,6270"/>
        <path fill="none" stroke="rgb(0,0,0)" d="M 13136,6270 L 13333,6270"/>
        <path fill="none" stroke="rgb(0,0,0)" d="M 13460,6270 L 13500,6270"/>
    </g>
    <g>
        <path fill="none" stroke="rgb(0,0,0)" d="M 500,7720 L 697,7720"/>
        <path fill="none" stroke="rgb(0,0,0)" d="M 824,7720 L 1021,7720"/>
        <path fill="none" stroke="rgb(0,0,0)" d="M 1148,7720 L 1345,7720"/>
        <path fill="none" stroke="rgb(0,0,0)" d="M 1472,7720 L 1669,7720"/>
        <path fill="none" stroke="rgb(0,0,0)" d="M 1796,7720 L 1993,7720"/>
        <path fill="none" stroke="rgb(0,0,0)" d="M 2120,7720 L 2317,7720"/>
        <path fill="none" stroke="rgb(0,0,0)" d="M 2444,7720 L 2641,7720"/>
        <path fill="none" stroke="rgb(0,0,0)" d="M 2768,7720 L 2965,7720"/>
        <path fill="none" stroke="rgb(0,0,0)" d="M 3092,7720 L 3289,7720"/>
        <path fill="none" stroke="rgb(0,0,0)" d="M 3416,7720 L 3613,7720"/>
        <path fill="none" stroke="rgb(0,0,0)" d="M 3740,7720 L 3937,7720"/>
        <path fill="none" stroke="rgb(0,0,0)" d="M 4064,7720 L 4261,7720"/>
        <path fill="none" stroke="rgb(0,0,0)" d="M 4388,7720 L 4585,7720"/>
        <path fill="none" stroke="rgb(0,0,0)" d="M 4712,7720 L 4909,7720"/>
        <path fill="none" stroke="rgb(0,0,0)" d="M 5036,7720 L 5233,7720"/>
        <path fill="none" stroke="rgb(0,0,0)" d="M 5360,7720 L 5557,7720"/>
        <path fill="none" stroke="rgb(0,0,0)" d="M 5684,7720 L 5881,7720"/>
        <path fill="none" stroke="rgb(0,0,0)" d="M 6008,7720 L 6205,7720"/>
        <path fill="none" stroke="rgb(0,0,0)" d="M 6332,7720 L 6529,7720"/>
        <path fill="none" stroke="rgb(0,0,0)" d="M 6656,7720 L 6853,7720"/>
        <path fill="none" stroke="rgb(0,0,0)" d="M 6980,7720 L 7177,7720"/>
        <path fill="none" stroke="rgb(0,0,0)" d="M 7304,7720 L 7501,7720"/>
        <path fill="none" stroke="rgb(0,0,0)" d="M 7628,7720 L 7825,7720"/>
        <path fill="none" stroke="rgb(0,0,0)" d="M 7952,7720 L 8149,7720"/>
        <path fill="none" stroke="rgb(0,0,0)" d="M 8276,7720 L 8473,7720"/>
        <path fill="none" stroke="rgb(0,0,0)" d="M 8600,7720 L 8797,7720"/>
        <path fill="none" stroke="rgb(0,0,0)" d="M 8924,7720 L 9121,7720"/>
        <path fill="none" stroke="rgb(0,0,0)" d="M 9248,7720 L 9445,7720"/>
        <path fill="none" stroke="rgb(0,0,0)" d="M 9572,7720 L 9769,7720"/>
        <path fill="none" stroke="rgb(0,0,0)" d="M 9896,7720 L 10093,7720"/>
        <path fill="none" stroke="rgb(0,0,0)" d="M 10220,7720 L 10417,7720"/>
        <path fill="none" stroke="rgb(0,0,0)" d="M 10544,7720 L 10741,7720"/>
        <path fill="none" stroke="rgb(0,0,0)" d="M 10868,7720 L 11065,7720"/>
        <path fill="none" stroke="rgb(0,0,0)" d="M 11192,7720 L 11389,7720"/>
        <path fill="none" stroke="rgb(0,0,0)" d="M 11516,7720 L 11713,7720"/>
        <path fill="none" stroke="rgb(0,0,0)" d="M 11840,7720 L 12037,7720"/>
        <path fill="none" stroke="rgb(0,0,0)" d="M 12164,7720 L 12361,7720"/>
        <path fill="none" stroke="rgb(0,0,0)" d="M 12488,7720 L 12685,7720"/>
        <path fill="none" stroke="rgb(0,0,0)" d="M 12812,7720 L 13009,7720"/>
        <path fill="none" stroke="rgb(0,0,0)" d="M 13136,7720 L 13333,7720"/>
        <path fill="none" stroke="rgb(0,0,0)" d="M 13460,7720 L 13500,7720"/>
    </g>
    <g>
        <path fill="none" stroke="rgb(0,0,0)" d="M 500,10610 L 697,10610"/>
        <path fill="none" stroke="rgb(0,0,0)" d="M 824,10610 L 1021,10610"/>
        <path fill="none" stroke="rgb(0,0,0)" d="M 1148,10610 L 1345,10610"/>
        <path fill="none" stroke="rgb(0,0,0)" d="M 1472,10610 L 1669,10610"/>
        <path fill="none" stroke="rgb(0,0,0)" d="M 1796,10610 L 1993,10610"/>
        <path fill="none" stroke="rgb(0,0,0)" d="M 2120,10610 L 2317,10610"/>
        <path fill="none" stroke="rgb(0,0,0)" d="M 2444,10610 L 2641,10610"/>
        <path fill="none" stroke="rgb(0,0,0)" d="M 2768,10610 L 2965,10610"/>
        <path fill="none" stroke="rgb(0,0,0)" d="M 3092,10610 L 3289,10610"/>
        <path fill="none" stroke="rgb(0,0,0)" d="M 3416,10610 L 3613,10610"/>
        <path fill="none" stroke="rgb(0,0,0)" d="M 3740,10610 L 3937,10610"/>
        <path fill="none" stroke="rgb(0,0,0)" d="M 4064,10610 L 4261,10610"/>
        <path fill="none" stroke="rgb(0,0,0)" d="M 4388,10610 L 4585,10610"/>
        <path fill="none" stroke="rgb(0,0,0)" d="M 4712,10610 L 4909,10610"/>
        <path fill="none" stroke="rgb(0,0,0)" d="M 5036,10610 L 5233,10610"/>
        <path fill="none" stroke="rgb(0,0,0)" d="M 5360,10610 L 5557,10610"/>
        <path fill="none" stroke="rgb(0,0,0)" d="M 5684,10610 L 5881,10610"/>
        <path fill="none" stroke="rgb(0,0,0)" d="M 6008,10610 L 6205,10610"/>
        <path fill="none" stroke="rgb(0,0,0)" d="M 6332,10610 L 6529,10610"/>
        <path fill="none" stroke="rgb(0,0,0)" d="M 6656,10610 L 6853,10610"/>
        <path fill="none" stroke="rgb(0,0,0)" d="M 6980,10610 L 7177,10610"/>
        <path fill="none" stroke="rgb(0,0,0)" d="M 7304,10610 L 7501,10610"/>
        <path fill="none" stroke="rgb(0,0,0)" d="M 7628,10610 L 7825,10610"/>
        <path fill="none" stroke="rgb(0,0,0)" d="M 7952,10610 L 8149,10610"/>
        <path fill="none" stroke="rgb(0,0,0)" d="M 8276,10610 L 8473,10610"/>
        <path fill="none" stroke="rgb(0,0,0)" d="M 8600,10610 L 8797,10610"/>
        <path fill="none" stroke="rgb(0,0,0)" d="M 8924,10610 L 9121,10610"/>
        <path fill="none" stroke="rgb(0,0,0)" d="M 9248,10610 L 9445,10610"/>
        <path fill="none" stroke="rgb(0,0,0)" d="M 9572,10610 L 9769,10610"/>
        <path fill="none" stroke="rgb(0,0,0)" d="M 9896,10610 L 10093,10610"/>
        <path fill="none" stroke="rgb(0,0,0)" d="M 10220,10610 L 10417,10610"/>
        <path fill="none" stroke="rgb(0,0,0)" d="M 10544,10610 L 10741,10610"/>
        <path fill="none" stroke="rgb(0,0,0)" d="M 10868,10610 L 11065,10610"/>
        <path fill="none" stroke="rgb(0,0,0)" d="M 11192,10610 L 11389,10610"/>
        <path fill="none" stroke="rgb(0,0,0)" d="M 11516,10610 L 11713,10610"/>
        <path fill="none" stroke="rgb(0,0,0)" d="M 11840,10610 L 12037,10610"/>
        <path fill="none" stroke="rgb(0,0,0)" d="M 12164,10610 L 12361,10610"/>
        <path fill="none" stroke="rgb(0,0,0)" d="M 12488,10610 L 12685,10610"/>
        <path fill="none" stroke="rgb(0,0,0)" d="M 12812,10610 L 13009,10610"/>
        <path fill="none" stroke="rgb(0,0,0)" d="M 13136,10610 L 13333,10610"/>
        <path fill="none" stroke="rgb(0,0,0)" d="M 13460,10610 L 13500,10610"/>
    </g>
    <g>
        <path fill="none" stroke="rgb(0,0,0)" d="M 500,12060 L 697,12060"/>
        <path fill="none" stroke="rgb(0,0,0)" d="M 824,12060 L 1021,12060"/>
        <path fill="none" stroke="rgb(0,0,0)" d="M 1148,12060 L 1345,12060"/>
        <path fill="none" stroke="rgb(0,0,0)" d="M 1472,12060 L 1669,12060"/>
        <path fill="none" stroke="rgb(0,0,0)" d="M 1796,12060 L 1993,12060"/>
        <path fill="none" stroke="rgb(0,0,0)" d="M 2120,12060 L 2317,12060"/>
        <path fill="none" stroke="rgb(0,0,0)" d="M 2444,12060 L 2641,12060"/>
        <path fill="none" stroke="rgb(0,0,0)" d="M 2768,12060 L 2965,12060"/>
        <path fill="none" stroke="rgb(0,0,0)" d="M 3092,12060 L 3289,12060"/>
        <path fill="none" stroke="rgb(0,0,0)" d="M 3416,12060 L 3613,12060"/>
        <path fill="none" stroke="rgb(0,0,0)" d="M 3740,12060 L 3937,12060"/>
        <path fill="none" stroke="rgb(0,0,0)" d="M 4064,12060 L 4261,12060"/>
        <path fill="none" stroke="rgb(0,0,0)" d="M 4388,12060 L 4585,12060"/>
        <path fill="none" stroke="rgb(0,0,0)" d="M 4712,12060 L 4909,12060"/>
        <path fill="none" stroke="rgb(0,0,0)" d="M 5036,12060 L 5233,12060"/>
        <path fill="none" stroke="rgb(0,0,0)" d="M 5360,12060 L 5557,12060"/>
        <path fill="none" stroke="rgb(0,0,0)" d="M 5684,12060 L 5881,12060"/>
        <path fill="none" stroke="rgb(0,0,0)" d="M 6008,12060 L 6205,12060"/>
        <path fill="none" stroke="rgb(0,0,0)" d="M 6332,12060 L 6529,12060"/>
        <path fill="none" stroke="rgb(0,0,0)" d="M 6656,12060 L 6853,12060"/>
        <path fill="none" stroke="rgb(0,0,0)" d="M 6980,12060 L 7177,12060"/>
        <path fill="none" stroke="rgb(0,0,0)" d="M 7304,12060 L 7501,12060"/>
        <path fill="none" stroke="rgb(0,0,0)" d="M 7628,12060 L 7825,12060"/>
        <path fill="none" stroke="rgb(0,0,0)" d="M 7952,12060 L 8149,12060"/>
        <path fill="none" stroke="rgb(0,0,0)" d="M 8276,12060 L 8473,12060"/>
        <path fill="none" stroke="rgb(0,0,0)" d="M 8600,12060 L 8797,12060"/>
        <path fill="none" stroke="rgb(0,0,0)" d="M 8924,12060 L 9121,12060"/>
        <path fill="none" stroke="rgb(0,0,0)" d="M 9248,12060 L 9445,12060"/>
        <path fill="none" stroke="rgb(0,0,0)" d="M 9572,12060 L 9769,12060"/>
        <path fill="none" stroke="rgb(0,0,0)" d="M 9896,12060 L 10093,12060"/>
        <path fill="none" stroke="rgb(0,0,0)" d="M 10220,12060 L 10417,12060"/>
        <path fill="none" stroke="rgb(0,0,0)" d="M 10544,12060 L 10741,12060"/>
        <path fill="none" stroke="rgb(0,0,0)" d="M 10868,12060 L 11065,12060"/>
        <path fill="none" stroke="rgb(0,0,0)" d="M 11192,12060 L 11389,12060"/>
        <path fill="none" stroke="rgb(0,0,0)" d="M 11516,12060 L 11713,12060"/>
        <path fill="none" stroke="rgb(0,0,0)" d="M 11840,12060 L 12037,12060"/>
        <path fill="none" stroke="rgb(0,0,0)" d="M 12164,12060 L 12361,12060"/>
        <path fill="none" stroke="rgb(0,0,0)" d="M 12488,12060 L 12685,12060"/>
        <path fill="none" stroke="rgb(0,0,0)" d="M 12812,12060 L 13009,12060"/>
        <path fill="none" stroke="rgb(0,0,0)" d="M 13136,12060 L 13333,12060"/>
        <path fill="none" stroke="rgb(0,0,0)" d="M 13460,12060 L 13500,12060"/>
    </g>
    <!-- 81 numbers -->
    <g font-size="1129px" font-style="normal" font-weight="400">
        <!-- row 1 -->
        <g fill="rgb(0,0,0)" stroke="none">
            <text x="939" y="1600">{CELL0}</text>
        </g>
        <g fill="rgb(0,0,0)" stroke="none">
            <text x="2384" y="1600">{CELL1}</text>
        </g>
        <g fill="rgb(0,0,0)" stroke="none">
            <text x="3829" y="1600">{CELL2}</text>
        </g>
        <g fill="rgb(0,0,0)" stroke="none">
            <text x="5274" y="1600">{CELL3}</text>
        </g>
        <g fill="rgb(0,0,0)" stroke="none">
            <text x="6719" y="1600">{CELL4}</text>
        </g>
        <g fill="rgb(0,0,0)" stroke="none">
            <text x="8164" y="1600">{CELL5}</text>
        </g>
        <g fill="rgb(0,0,0)" stroke="none">
            <text x="9609" y="1600">{CELL6}</text>
        </g>
        <g fill="rgb(0,0,0)" stroke="none">
            <text x="11054" y="1600">{CELL7}</text>
        </g>
        <g fill="rgb(0,0,0)" stroke="none">
            <text x="12499" y="1600">{CELL8}</text>
        </g>
        <!-- row 2 -->
        <g fill="rgb(0,0,0)" stroke="none">
            <text x="939" y="3047">{CELL9}</text>
        </g>
        <g fill="rgb(0,0,0)" stroke="none">
            <text x="2384" y="3047">{CELL10}</text>
        </g>
        <g fill="rgb(0,0,0)" stroke="none">
            <text x="3829" y="3047">{CELL11}</text>
        </g>
        <g fill="rgb(0,0,0)" stroke="none">
            <text x="5274" y="3047">{CELL12}</text>
        </g>
        <g fill="rgb(0,0,0)" stroke="none">
            <text x="6719" y="3047">{CELL13}</text>
        </g>
        <g fill="rgb(0,0,0)" stroke="none">
            <text x="8164" y="3047">{CELL14}</text>
        </g>
        <g fill="rgb(0,0,0)" stroke="none">
            <text x="9609" y="3047">{CELL15}</text>
        </g>
        <g fill="rgb(0,0,0)" stroke="none">
            <text x="11054" y="3047">{CELL16}</text>
        </g>
        <g fill="rgb(0,0,0)" stroke="none">
            <text x="12499" y="3047">{CELL17}</text>
        </g>
        <!-- row 3 -->
        <g fill="rgb(0,0,0)" stroke="none">
            <text x="939" y="4494">{CELL18}</text>
        </g>
        <g fill="rgb(0,0,0)" stroke="none">
            <text x="2384" y="4494">{CELL19}</text>
        </g>
        <g fill="rgb(0,0,0)" stroke="none">
            <text x="3829" y="4494">{CELL20}</text>
        </g>
        <g fill="rgb(0,0,0)" stroke="none">
            <text x="5274" y="4494">{CELL21}</text>
        </g>
        <g fill="rgb(0,0,0)" stroke="none">
            <text x="6719" y="4494">{CELL22}</text>
        </g>
        <g fill="rgb(0,0,0)" stroke="none">
            <text x="8164" y="4494">{CELL23}</text>
        </g>
        <g fill="rgb(0,0,0)" stroke="none">
            <text x="9609" y="4494">{CELL24}</text>
        </g>
        <g fill="rgb(0,0,0)" stroke="none">
            <text x="11054" y="4494">{CELL25}</text>
        </g>
        <g fill="rgb(0,0,0)" stroke="none">
            <text x="12499" y="4494">{CELL26}</text>
        </g>
        <!-- row 4 -->
        <g fill="rgb(0,0,0)" stroke="none">
            <text x="939" y="5941">{CELL27}</text>
        </g>
        <g fill="rgb(0,0,0)" stroke="none">
            <text x="2384" y="5941">{CELL28}</text>
        </g>
        <g fill="rgb(0,0,0)" stroke="none">
            <text x="3829" y="5941">{CELL29}</text>
        </g>
        <g fill="rgb(0,0,0)" stroke="none">
            <text x="5274" y="5941">{CELL30}</text>
        </g>
        <g fill="rgb(0,0,0)" stroke="none">
            <text x="6719" y="5941">{CELL31}</text>
        </g>
        <g fill="rgb(0,0,0)" stroke="none">
            <text x="8164" y="5941">{CELL32}</text>
        </g>
        <g fill="rgb(0,0,0)" stroke="none">
            <text x="9609" y="5941">{CELL33}</text>
        </g>
        <g fill="rgb(0,0,0)" stroke="none">
            <text x="11054" y="5941">{CELL34}</text>
        </g>
        <g fill="rgb(0,0,0)" stroke="none">
            <text x="12499" y="5941">{CELL35}</text>
        </g>
        <!-- row 5 -->
        <g fill="rgb(0,0,0)" stroke="none">
            <text x="939" y="7388">{CELL36}</text>
        </g>
        <g fill="rgb(0,0,0)" stroke="none">
            <text x="2384" y="7388">{CELL37}</text>
        </g>
        <g fill="rgb(0,0,0)" stroke="none">
            <text x="3829" y="7388">{CELL38}</text>
        </g>
        <g fill="rgb(0,0,0)" stroke="none">
            <text x="5274" y="7388">{CELL39}</text>
        </g>
        <g fill="rgb(0,0,0)" stroke="none">
            <text x="6719" y="7388">{CELL40}</text>
        </g>
        <g fill="rgb(0,0,0)" stroke="none">
            <text x="8164" y="7388">{CELL41}</text>
        </g>
        <g fill="rgb(0,0,0)" stroke="none">
            <text x="9609" y="7388">{CELL42}</text>
        </g>
        <g fill="rgb(0,0,0)" stroke="none">
            <text x="11054" y="7388">{CELL43}</text>
        </g>
        <g fill="rgb(0,0,0)" stroke="none">
            <text x="12499" y="7388">{CELL44}</text>
        </g>
        <!-- row 6 -->
        <g fill="rgb(0,0,0)" stroke="none">
            <text x="939" y="8835">{CELL45}</text>
        </g>
        <g fill="rgb(0,0,0)" stroke="none">
            <text x="2384" y="8835">{CELL46}</text>
        </g>
        <g fill="rgb(0,0,0)" stroke="none">
            <text x="3829" y="8835">{CELL47}</text>
        </g>
        <g fill="rgb(0,0,0)" stroke="none">
            <text x="5274" y="8835">{CELL48}</text>
        </g>
        <g fill="rgb(0,0,0)" stroke="none">
            <text x="6719" y="8835">{CELL49}</text>
        </g>
        <g fill="rgb(0,0,0)" stroke="none">
            <text x="8164" y="8835">{CELL50}</text>
        </g>
        <g fill="rgb(0,0,0)" stroke="none">
            <text x="9609" y="8835">{CELL51}</text>
        </g>
        <g fill="rgb(0,0,0)" stroke="none">
            <text x="11054" y="8835">{CELL52}</text>
        </g>
        <g fill="rgb(0,0,0)" stroke="none">
            <text x="12499" y="8835">{CELL53}</text>
        </g>
        <!-- row 7 -->
        <g fill="rgb(0,0,0)" stroke="none">
            <text x="939" y="10282">{CELL54}</text>
        </g>
        <g fill="rgb(0,0,0)" stroke="none">
            <text x="2384" y="10282">{CELL55}</text>
        </g>
        <g fill="rgb(0,0,0)" stroke="none">
            <text x="3829" y="10282">{CELL56}</text>
        </g>
        <g fill="rgb(0,0,0)" stroke="none">
            <text x="5274" y="10282">{CELL57}</text>
        </g>
        <g fill="rgb(0,0,0)" stroke="none">
            <text x="6719" y="10282">{CELL58}</text>
        </g>
        <g fill="rgb(0,0,0)" stroke="none">
            <text x="8164" y="10282">{CELL59}</text>
        </g>
        <g fill="rgb(0,0,0)" stroke="none">
            <text x="9609" y="10282">{CELL60}</text>
        </g>
        <g fill="rgb(0,0,0)" stroke="none">
            <text x="11054" y="10282">{CELL61}</text>
        </g>
        <g fill="rgb(0,0,0)" stroke="none">
            <text x="12499" y="10282">{CELL62}</text>
        </g>
        <!-- row 8 -->
        <g fill="rgb(0,0,0)" stroke="none">
            <text x="939" y="11729">{CELL63}</text>
        </g>
        <g fill="rgb(0,0,0)" stroke="none">
            <text x="2384" y="11729">{CELL64}</text>
        </g>
        <g fill="rgb(0,0,0)" stroke="none">
            <text x="3829" y="11729">{CELL65}</text>
        </g>
        <g fill="rgb(0,0,0)" stroke="none">
            <text x="5274" y="11729">{CELL66}</text>
        </g>
        <g fill="rgb(0,0,0)" stroke="none">
            <text x="6719" y="11729">{CELL67}</text>
        </g>
        <g fill="rgb(0,0,0)" stroke="none">
            <text x="8164" y="11729">{CELL68}</text>
        </g>
        <g fill="rgb(0,0,0)" stroke="none">
            <text x="9609" y="11729">{CELL69}</text>
        </g>
        <g fill="rgb(0,0,0)" stroke="none">
            <text x="11054" y="11729">{CELL70}</text>
        </g>
        <g fill="rgb(0,0,0)" stroke="none">
            <text x="12499" y="11729">{CELL71}</text>
        </g>
        <!-- row 9 -->
        <g fill="rgb(0,0,0)" stroke="none">
            <text x="939" y="13176">{CELL72}</text>
        </g>
        <g fill="rgb(0,0,0)" stroke="none">
            <text x="2384" y="13176">{CELL73}</text>
        </g>
        <g fill="rgb(0,0,0)" stroke="none">
            <text x="3829" y="13176">{CELL74}</text>
        </g>
        <g fill="rgb(0,0,0)" stroke="none">
            <text x="5274" y="13176">{CELL75}</text>
        </g>
        <g fill="rgb(0,0,0)" stroke="none">
            <text x="6719" y="13176">{CELL76}</text>
        </g>
        <g fill="rgb(0,0,0)" stroke="none">
            <text x="8164" y="13176">{CELL77}</text>
        </g>
        <g fill="rgb(0,0,0)" stroke="none">
            <text x="9609" y="13176">{CELL78}</text>
        </g>
        <g fill="rgb(0,0,0)" stroke="none">
            <text x="11054" y="13176">{CELL79}</text>
        </g>
        <g fill="rgb(0,0,0)" stroke="none">
            <text x="12499" y="13176">{CELL80}</text>
        </g>
        <!-- End row -->
    </g>
</svg>
